#N canvas 112 28 901 568 12;
#X obj 26 94 noise~;
#X obj 229 194 print A;
#X obj 443 431 tgl 15 0 empty empty empty 0 -6 0 8 -225271 -1 -1 0
1;
#X msg 442 453 vis \$1;
#X obj 231 430 tgl 15 0 empty empty empty 0 -6 0 8 -225271 -1 -1 1
1;
#X msg 230 452 edit \$1;
#X msg 298 452 getedit;
#X msg 505 453 getvis;
#N canvas 367 122 570 368 info 0;
#X msg 92 160 getversion;
#X msg 92 105 getname;
#X msg 93 183 getvendor;
#X msg 92 218 getsynth;
#X msg 92 248 getins;
#X msg 153 250 getouts;
#X msg 93 134 getdll;
#X obj 24 290 s \$0-vst;
#X msg 98 323 print;
#X text 169 220 is synth?;
#X text 177 183 get vendor string;
#X text 179 161 get version;
#X text 152 134 get shared lib name;
#X text 157 109 get internal (official) plug name;
#X text 217 251 number of plug inlets and outlets;
#X msg 93 41 getattributes;
#X msg 266 219 geteditor;
#X text 346 219 has editor?;
#X msg 22 41 help;
#X text 213 38 list all attributes;
#X msg 93 64 getmethods;
#X text 213 65 list all methods;
#X connect 0 0 7 0;
#X connect 1 0 7 0;
#X connect 2 0 7 0;
#X connect 3 0 7 0;
#X connect 4 0 7 0;
#X connect 5 0 7 0;
#X connect 6 0 7 0;
#X connect 8 0 7 0;
#X connect 15 0 7 0;
#X connect 16 0 7 0;
#X connect 18 0 7 0;
#X connect 20 0 7 0;
#X restore 445 110 pd info;
#X obj 96 96 r \$0-vst;
#X obj 229 479 s \$0-vst;
#X obj 441 479 s \$0-vst;
#X text 256 429 display edit window;
#X text 466 429 make edit window (in)visible;
#X msg 105 295 getplug;
#X obj 26 323 s \$0-vst;
#X text 65 249 set/get plugin;
#X text 511 110 further information;
#X obj 23 15 cnv 15 800 58 empty empty vst~ 10 32 0 24 -260818 -1 0
;
#X text 226 175 attribute outlet;
#X text 103 137 inlets outlets [plugname];
#N canvas 343 52 618 469 win 0;
#X obj 23 202 s \$0-vst;
#X msg 122 83 getx;
#X msg 181 85 gety;
#X obj 122 37 nbx 5 14 -1e+037 1e+037 0 0 empty empty empty 0 -6 0
10 -225271 -1 -1 0 256;
#X msg 123 55 x \$1;
#X obj 192 37 nbx 5 14 -1e+037 1e+037 0 0 empty empty empty 0 -6 0
10 -225271 -1 -1 0 256;
#X msg 193 53 y \$1;
#X text 264 74 (position of the actual VST interface);
#X obj 119 214 tgl 15 0 empty empty empty 0 -6 0 8 -225271 -1 -1 0
1;
#X msg 118 233 caption \$1;
#X msg 213 233 getcaption;
#X text 121 257 set/get window caption and borders;
#X text 120 322 set/get window title;
#X msg 220 298 gettitle;
#X msg 117 298 title KARL;
#X obj 120 124 nbx 5 14 -1e+037 1e+037 0 0 empty empty empty 0 -6 0
10 -225271 -1 -1 0 256;
#X obj 190 124 nbx 5 14 -1e+037 1e+037 0 0 empty empty empty 0 -6 0
10 -225271 -1 -1 0 256;
#X msg 121 142 w \$1;
#X msg 120 170 getw;
#X msg 191 140 h \$1;
#X msg 175 170 geth;
#X text 265 144 set and get editor window size;
#X text 267 59 set and get editor position;
#X obj 120 372 bng 15 250 50 0 empty empty empty 0 -6 0 8 -225271 -1
-1;
#X text 278 371 send editor window to front;
#X msg 221 371 front;
#X obj 143 371 delay 100;
#X obj 121 414 tgl 15 0 empty empty empty 0 -6 0 8 -225271 -1 -1 0
1;
#X msg 143 411 handle \$1;
#X text 228 412 set/unset handle for window (taskbar button);
#X connect 1 0 0 0;
#X connect 2 0 0 0;
#X connect 3 0 4 0;
#X connect 4 0 0 0;
#X connect 5 0 6 0;
#X connect 6 0 0 0;
#X connect 8 0 9 0;
#X connect 9 0 0 0;
#X connect 10 0 0 0;
#X connect 13 0 0 0;
#X connect 14 0 0 0;
#X connect 15 0 17 0;
#X connect 16 0 19 0;
#X connect 17 0 0 0;
#X connect 18 0 0 0;
#X connect 19 0 0 0;
#X connect 20 0 0 0;
#X connect 23 0 26 0;
#X connect 25 0 0 0;
#X connect 26 0 25 0;
#X connect 27 0 28 0;
#X connect 28 0 0 0;
#X restore 446 244 pd win;
#X text 512 244 manipulating the edit window;
#X msg 28 296 plug \$1;
#X obj 27 240 bng 25 250 50 0 empty empty empty 0 -6 0 8 -225271 -1
-1;
#X obj 27 271 openpanel;
#N canvas 294 23 530 659 midi 0;
#X obj 16 256 s \$0-vst;
#X msg 198 201 ctlchg 3 123;
#X text 204 70 note on;
#X text 375 71 note off;
#X text 308 200 control change;
#X text 272 287 pitch bend;
#X text 279 228 program change;
#X msg 197 229 progchg 2;
#X msg 285 72 noteoff 10;
#X text 275 336 after touch;
#X obj 198 267 nbx 5 14 -1e+037 1e+037 0 0 empty empty empty 0 -6 0
10 -225271 -1 -1 0 256;
#X obj 198 318 nbx 5 14 -1e+037 1e+037 0 0 empty empty empty 0 -6 0
10 -225271 -1 -1 0 256;
#X msg 197 287 pbend \$1;
#X msg 196 337 atouch \$1;
#X obj 109 136 nbx 5 14 -1e+037 1e+037 0 0 empty empty empty 0 -6 0
10 -225271 -1 -1 0 256;
#X msg 108 71 note 10 100;
#X msg 108 152 note \$1 100;
#X msg 284 126 noteoff \$1;
#X obj 285 109 nbx 5 14 -1e+037 1e+037 0 0 empty empty empty 0 -6 0
10 -225271 -1 -1 0 256;
#X text 25 520 MIDI messages have the following format:;
#X text 23 544 [event midi subtype chn b2 b3 delta note-length note-offset
detune off-velocity(;
#X obj 90 371 tgl 15 0 empty empty empty 0 -6 0 8 -225271 -1 -1 0 1
;
#X msg 90 390 events \$1;
#X msg 90 415 getevents;
#X text 177 393 enable event processing;
#X text 25 463 if enabled vst~ will output events generated by the
plugin as [event ...( messages through the dump outlet;
#X msg 108 93 note 10 0;
#X text 188 93 "note off";
#X obj 107 12 nbx 5 14 0 15 0 0 empty empty empty 0 -6 0 10 -225271
-1 -1 0 256;
#X msg 106 28 channel \$1;
#X msg 207 28 getchannel;
#X text 305 20 set/get MIDI channel;
#X text 25 585 subtypes are note \, noteoff \, atouch \, patouch \,
ctlchg \, progchg \, pbend;
#X connect 1 0 0 0;
#X connect 7 0 0 0;
#X connect 8 0 0 0;
#X connect 10 0 12 0;
#X connect 11 0 13 0;
#X connect 12 0 0 0;
#X connect 13 0 0 0;
#X connect 14 0 16 0;
#X connect 15 0 0 0;
#X connect 16 0 0 0;
#X connect 17 0 0 0;
#X connect 18 0 17 0;
#X connect 21 0 22 0;
#X connect 22 0 0 0;
#X connect 23 0 0 0;
#X connect 26 0 0 0;
#X connect 28 0 29 0;
#X connect 29 0 0 0;
#X connect 30 0 0 0;
#X restore 445 208 pd midi;
#X text 134 33 based on the work of Jarno Seppanen and Mark Williamson
;
#X obj 723 444 loadbang;
#X msg 723 471 \; pd dsp 1;
#X obj 230 324 tgl 15 0 empty empty empty 0 -6 0 8 -225271 -1 -1 0
1;
#X obj 228 373 s \$0-vst;
#X msg 229 346 bypass \$1;
#X msg 311 346 getbypass;
#X text 255 323 bypass plugin;
#X obj 231 240 tgl 15 0 empty empty empty 0 -6 0 8 -225271 -1 -1 0
1;
#X obj 229 289 s \$0-vst;
#X text 256 239 mute output;
#X msg 230 262 mute \$1;
#X msg 312 262 getmute;
#N canvas 200 110 493 444 parameters 0;
#X obj 114 125 hsl 128 15 0 1 0 0 empty empty empty -2 -6 0 8 -225271
-1 -1 0 1;
#X msg 111 142 param 2 \$1;
#X obj 21 195 s \$0-vst;
#X msg 113 26 getparams;
#X text 191 26 get number of parameters;
#X msg 213 143 getparam 2;
#X msg 107 202 param gain 0;
#X text 203 84 get parameter name;
#X text 120 277 get value in textual representation;
#X text 136 164 set/get parameter (0-based);
#X msg 107 255 getptext \$1;
#X obj 107 238 nbx 5 14 0 10000 0 0 empty empty empty 0 -6 0 10 -225271
-1 -1 0 256;
#X obj 111 68 nbx 5 14 0 10000 0 0 empty empty empty 0 -6 0 10 -225271
-1 -1 0 256;
#X msg 111 86 getpname \$1;
#X msg 212 255 getptext gain;
#X msg 214 202 getparam gain;
#X text 116 293 (may be ambigous!);
#X obj 106 335 tgl 15 0 empty empty empty 0 -6 0 8 -225271 -1 -1 0
1;
#X msg 108 356 feedback \$1;
#X msg 213 356 getfeedback;
#X text 108 378 get parameter feedback through dump outlet;
#X connect 0 0 1 0;
#X connect 1 0 2 0;
#X connect 3 0 2 0;
#X connect 5 0 2 0;
#X connect 6 0 2 0;
#X connect 10 0 2 0;
#X connect 11 0 10 0;
#X connect 12 0 13 0;
#X connect 13 0 2 0;
#X connect 14 0 2 0;
#X connect 15 0 2 0;
#X connect 17 0 18 0;
#X connect 18 0 2 0;
#X connect 19 0 2 0;
#X restore 444 143 pd parameters;
#N canvas 0 0 462 312 programs 0;
#X obj 39 245 s \$0-vst;
#X msg 162 106 getprogram;
#X text 134 34 get number of programs;
#X msg 39 37 getprograms;
#X text 93 125 set/get program (0-based);
#X msg 39 62 getprogcats;
#X text 134 59 get number of program categories;
#X msg 59 106 program \$1;
#X obj 60 90 nbx 5 14 0 10000 0 0 empty empty empty 0 -6 0 10 -225271
-1 -1 0 256;
#X obj 64 144 nbx 5 14 0 10000 0 0 empty empty empty 0 -6 0 10 -225271
-1 -1 0 256;
#X msg 62 161 getprogname \$1;
#X text 182 158 get program name;
#X obj 63 195 nbx 5 14 0 10000 0 0 empty empty empty 0 -6 0 10 -225271
-1 -1 0 256;
#X text 199 210 get program name;
#X msg 61 212 getprogname 2 \$1;
#X text 201 224 (with category);
#X text 198 172 (no category);
#X connect 1 0 0 0;
#X connect 3 0 0 0;
#X connect 5 0 0 0;
#X connect 7 0 0 0;
#X connect 8 0 7 0;
#X connect 9 0 10 0;
#X connect 10 0 0 0;
#X connect 12 0 14 0;
#X connect 14 0 0 0;
#X restore 445 175 pd programs;
#X text 561 144 VST parameters;
#X text 562 175 VST programs;
#X text 134 53 http://grrrr.org;
#X text 513 209 midi messages for VST synths;
#X msg 47 413 subplug AudioTrack;
#X obj 32 498 s \$0-vst;
#X msg 54 468 getsubplug;
#X obj 26 140 vst~ 2 2 @pnames 100;
#X msg 32 382 getpluglist;
#X text 511 278 sequencer stuff;
#X text 133 14 VST plugins for PD \, (C)2003-2005 Thomas Grill;
#X text 443 319 Attention: this vst~ version will crash when a plugin
is unloaded with the editor window open!;
#X msg 52 440 subplug X-Noise;
#N canvas 0 0 466 316 out 0;
#X obj 79 164 *~;
#X obj 79 194 dac~ 1 2 3 4;
#X obj 109 164 *~;
#X obj 139 164 *~;
#X obj 169 164 *~;
#X obj 266 26 inlet;
#X obj 49 26 inlet~;
#X obj 102 26 inlet~;
#X obj 154 26 inlet~;
#X obj 206 26 inlet~;
#X obj 265 108 line~;
#X msg 266 82 \$1 1 20;
#X connect 0 0 1 0;
#X connect 2 0 1 1;
#X connect 3 0 1 2;
#X connect 4 0 1 3;
#X connect 5 0 11 0;
#X connect 6 0 0 0;
#X connect 7 0 2 0;
#X connect 8 0 3 0;
#X connect 9 0 4 0;
#X connect 10 0 4 1;
#X connect 10 0 3 1;
#X connect 10 0 2 1;
#X connect 10 0 0 1;
#X connect 11 0 10 0;
#X restore 26 197 pd out;
#X obj 72 180 hsl 128 15 0.001 1 1 1 empty empty gain -2 -6 0 8 -261689
-1 -1 4100 1;
#N canvas 105 36 490 647 seq 0;
#X obj 17 225 s \$0-vst;
#X msg 112 78 samplepos \$1;
#X obj 111 60 nbx 5 14 0 1e+037 0 0 empty empty empty 0 -6 0 10 -225271
-1 -1 0 256;
#X msg 224 77 getsamplepos;
#X obj 111 108 nbx 5 14 0 1e+037 0 0 empty empty empty 0 -6 0 10 -225271
-1 -1 0 256;
#X msg 112 126 ppqpos \$1;
#X msg 199 127 getppqpos;
#X obj 111 153 nbx 5 14 5 400 0 1 empty empty empty 0 -6 0 10 -225271
-1 -1 120 256;
#X msg 112 171 tempo \$1;
#X msg 199 172 gettempo;
#X msg 113 28 playing \$1;
#X msg 203 28 getplaying;
#X obj 112 -1 tgl 25 0 empty empty empty 0 -6 0 8 -225271 -1 -1 0 1
;
#X obj 109 218 tgl 25 0 empty empty empty 0 -6 0 8 -225271 -1 -1 0
1;
#X msg 110 247 looping \$1;
#X msg 200 247 getlooping;
#X obj 111 275 nbx 5 14 0 1e+037 0 0 empty empty empty 0 -6 0 10 -225271
-1 -1 0 256;
#X msg 112 293 loopstart \$1;
#X msg 222 293 getloopstart;
#X obj 111 319 nbx 5 14 0 1e+037 0 0 empty empty empty 0 -6 0 10 -225271
-1 -1 0 256;
#X msg 112 337 loopend \$1;
#X msg 222 337 getloopend;
#X obj 111 363 nbx 5 14 0 1e+037 0 0 empty empty empty 0 -6 0 10 -225271
-1 -1 0 256;
#X msg 112 379 looplength \$1;
#X msg 227 379 getlooplength;
#X obj 115 521 nbx 5 14 0 1e+037 0 0 empty empty empty 0 -6 0 10 -225271
-1 -1 0 256;
#X msg 116 537 smpteoffset \$1;
#X msg 238 537 getsmpteoffset;
#X msg 116 579 smpterate \$1;
#X msg 230 579 getsmpterate;
#X obj 116 562 hradio 15 1 0 6 empty empty empty 0 -6 0 8 -225271 -1
-1 0;
#X text 230 561 24/25/24/30/29.97df/30df;
#X obj 112 415 nbx 5 14 1 128 0 1 empty empty empty 0 -6 0 10 -225271
-1 -1 4 256;
#X msg 113 433 timenom \$1;
#X msg 205 434 gettimenom;
#X obj 113 455 nbx 5 14 1 128 0 1 empty empty empty 0 -6 0 10 -225271
-1 -1 4 256;
#X msg 114 473 timeden \$1;
#X msg 206 474 gettimeden;
#X text 300 423 time signature;
#X text 302 438 nominator;
#X text 302 476 denominator;
#X text 284 161 tempo in quarters per minute;
#X connect 1 0 0 0;
#X connect 2 0 1 0;
#X connect 3 0 0 0;
#X connect 4 0 5 0;
#X connect 5 0 0 0;
#X connect 6 0 0 0;
#X connect 7 0 8 0;
#X connect 8 0 0 0;
#X connect 9 0 0 0;
#X connect 10 0 0 0;
#X connect 11 0 0 0;
#X connect 12 0 10 0;
#X connect 13 0 14 0;
#X connect 14 0 0 0;
#X connect 15 0 0 0;
#X connect 16 0 17 0;
#X connect 17 0 0 0;
#X connect 18 0 0 0;
#X connect 19 0 20 0;
#X connect 20 0 0 0;
#X connect 21 0 0 0;
#X connect 22 0 23 0;
#X connect 23 0 0 0;
#X connect 24 0 0 0;
#X connect 25 0 26 0;
#X connect 26 0 0 0;
#X connect 27 0 0 0;
#X connect 28 0 0 0;
#X connect 29 0 0 0;
#X connect 30 0 28 0;
#X connect 32 0 33 0;
#X connect 33 0 0 0;
#X connect 34 0 0 0;
#X connect 35 0 36 0;
#X connect 36 0 0 0;
#X connect 37 0 0 0;
#X restore 446 280 pd seq;
#X text 226 525 on the vst~ object box;
#X text 227 508 you can also alt-click;
#X connect 0 0 49 0;
#X connect 0 0 49 1;
#X connect 2 0 3 0;
#X connect 3 0 11 0;
#X connect 4 0 5 0;
#X connect 5 0 10 0;
#X connect 6 0 10 0;
#X connect 7 0 11 0;
#X connect 9 0 49 0;
#X connect 14 0 15 0;
#X connect 23 0 15 0;
#X connect 24 0 25 0;
#X connect 25 0 23 0;
#X connect 28 0 29 0;
#X connect 30 0 32 0;
#X connect 32 0 31 0;
#X connect 33 0 31 0;
#X connect 35 0 38 0;
#X connect 38 0 36 0;
#X connect 39 0 36 0;
#X connect 46 0 47 0;
#X connect 48 0 47 0;
#X connect 49 0 55 0;
#X connect 49 1 55 1;
#X connect 49 2 1 0;
#X connect 50 0 47 0;
#X connect 54 0 47 0;
#X connect 56 0 55 4;
